<svg width="64" height="64" viewBox="0 0 64 64" fill="none" xmlns="http://www.w3.org/2000/svg"><path fill-rule="evenodd" clip-rule="evenodd" d="M64 0H0v64h64V0zM24 19.33c0-.83.5-1.33 1.17-1.5l18-3.83c1.66-.33 2.16.5 2.16 2.17v23.5A5.71 5.71 0 0139.5 45c-3.67 0-5-2.33-5-4.33s.67-2.84 2.17-3.84S42 35.17 42 35.17c1-.17 1-.67 1-1.5V24c0-.83-.33-.83-1.17-.67l-14.83 3c-.67.17-.67.34-.67 1V43.5c-.16 2.5-2 5.33-5.66 5.33-3.67 0-5-2.33-5-4.33s.66-2.83 2.16-3.83 5-1.67 5-1.67c1-.17 1.17-.67 1.17-1.5V19.33z" fill="#1DB954"/></svg>
